#!OML:ASF F:\VICON\USERDATA\INSTALL\rory3\rory3.ASF
:FULLY-SPECIFIED
:DEGREES
180
root 2.40245 17.6669 0.084095 17.4999 3.60491 0.604425
lowerback -9.69429 -1.41308 5.51606
upperback -6.38386 -2.29485 0.718146
thorax -1.41433 -1.30787 -2.53329
lowerneck -13.473 1.26614 -4.1235
upperneck 16.8207 2.33699 1.49394
head 7.31904 0.994188 1.40381
rclavicle 3.26939e-014 -1.90833e-014
rhumerus -39.0864 13.2684 -90.9813
rradius 36.6336
rwrist 3.92001
rhand -19.8005 -49.0693
rfingers 7.12502
rthumb 6.53242 -78.9486
lclavicle 3.26939e-014 -1.90833e-014
lhumerus -30.5524 -17.5736 94.4705
lradius 34.1156
lwrist 17.0071
lhand -30.1317 -24.2679
lfingers 7.12502
lthumb -3.44468 5.68397
rfemur -7.15675 13.7148 5.3309
rtibia 3.18055e-015
rfoot -6.34616 -34.8151
rtoes 1.468
lfemur -22.9872 -6.22095 -16.6674
ltibia 18.8446
lfoot -10.6198 14.109
ltoes 1.89159
181
root 2.42772 17.6597 0.0764452 17.6334 3.63465 0.723494
lowerback -9.88735 -1.3826 5.47934
upperback -6.41721 -2.26275 0.655362
thorax -1.34218 -1.29069 -2.5814
lowerneck -13.035 1.40864 -3.85745
upperneck 16.4677 2.49035 1.29754
head 7.12873 1.07163 1.30167
rclavicle 1.96579e-014 3.97569e-015
rhumerus -39.0947 13.6246 -91.3812
rradius 36.3746
rwrist 4.67737
rhand -20.7968 -47.6832
rfingers 7.12502
rthumb 5.57057 -77.59
lclavicle 1.96579e-014 3.97569e-015
lhumerus -30.4409 -18.1405 94.5891
lradius 34.5031
lwrist 16.9941
lhand -30.1617 -24.3956
lfingers 7.12502
lthumb -3.47358 5.55587
rfemur -7.28707 13.6063 5.07542
rtibia -7.95139e-015
rfoot -6.40898 -34.8459
rtoes 1.44941
lfemur -23.2504 -5.92249 -16.9972
ltibia 18.9209
lfoot -10.2038 13.9947
ltoes -0.620788
182
root 2.4564 17.6585 0.0679916 17.6236 3.72451 0.64863
lowerback -9.94544 -1.36383 5.68808
upperback -6.33525 -2.26082 0.682115
thorax -1.2336 -1.29082 -2.674
lowerneck -12.8599 1.54194 -3.6329
upperneck 16.0429 2.67131 0.988985
head 6.96357 1.15083 1.17503
rclavicle -4.02415e-014 7.15625e-015
rhumerus -38.9703 14.1465 -91.7146
rradius 36.4582
rwrist 4.73258
rhand -21.0031 -47.4537
rfingers 7.12502
rthumb 5.37132 -77.3656
lclavicle -4.02415e-014 7.15625e-015
lhumerus -30.0867 -18.5672 94.6425
lradius 34.8892
lwrist 17.0679
lhand -29.7386 -24.3739
lfingers 7.12502
lthumb -3.06499 5.58378
rfemur -7.27498 13.5341 5.07706
rtibia 3.81667e-014
rfoot -6.7633 -34.8347
rtoes 2.62344
lfemur -23.3169 -5.79622 -17.0443
ltibia 18.9759
lfoot -10.1807 13.7681
ltoes -1.01898
183
root 2.48724 17.6596 0.0702273 17.4742 3.87728 0.622478
lowerback -9.8824 -1.35316 5.89277
upperback -6.1981 -2.26333 0.682716
thorax -1.13451 -1.29222 -2.78895
lowerneck -12.9179 1.63968 -3.42379
upperneck 15.6308 2.815 0.680332
head 6.84532 1.2111 1.0508
rclavicle -2.00959e-014 -1.59028e-015
rhumerus -38.7229 14.6 -92.0034
rradius 36.521
rwrist 4.48554
rhand -20.7649 -47.7588
rfingers 7.12502
rthumb 5.60136 -77.6647
lclavicle -2.00959e-014 -1.59028e-015
lhumerus -29.7841 -19.2055 94.775
lradius 35.3351
lwrist 17.3399
lhand -29.604 -25.4538
lfingers 7.12502
lthumb -2.93498 4.50576
rfemur -7.0059 13.4183 5.10683
rtibia -1.59028e-014
rfoot -7.22405 -34.7822
rtoes 3.55684
lfemur -23.1344 -5.71777 -17.1481
ltibia 19.0187
lfoot -10.4336 13.4426
ltoes -0.45799
184
root 2.505 17.6583 0.0658289 17.3809 3.82296 0.713187
lowerback -9.61468 -1.30341 5.77087
upperback -6.17998 -2.16998 0.646881
thorax -1.24865 -1.24528 -2.74222
lowerneck -13.1065 1.78997 -3.34706
upperneck 15.6041 3.00881 0.697171
head 6.86587 1.31058 1.06408
rclavicle -2.15184e-014 -1.55052e-014
rhumerus -38.5817 15.0892 -92.4037
rradius 36.2703
rwrist 4.96137
rhand -21.2487 -46.8522
rfingers 7.12502
rthumb 5.13424 -76.77
lclavicle -2.15184e-014 -1.55052e-014
lhumerus -29.5993 -19.978 94.9333
lradius 35.7922
lwrist 17.5431
lhand -30.032 -25.9928
lfingers 7.12502
lthumb -3.34834 3.96063
rfemur -6.91636 13.4573 4.94169
rtibia 6.36111e-015
rfoot -7.66912 -34.7119
rtoes 4.16387
lfemur -23.0544 -5.77538 -17.2999
ltibia 19.0816
lfoot -10.6358 13.4354
ltoes 0.2894
185
root 2.51515 17.6575 0.0545909 17.4791 3.65526 0.827477
lowerback -9.38873 -1.23312 5.4856
upperback -6.26553 -2.03731 0.64065
thorax -1.43693 -1.17714 -2.57035
lowerneck -13.4432 1.97985 -3.342
upperneck 15.8421 3.25921 0.833107
head 6.99309 1.43938 1.13863
rclavicle 3.35449e-015 4.37326e-015
rhumerus -38.46 15.6421 -92.8057
rradius 36.2573
rwrist 5.0666
rhand -21.3617 -46.7514
rfingers 7.12502
rthumb 5.02507 -76.6718
lclavicle 3.35449e-015 4.37326e-015
lhumerus -29.3603 -20.7712 95.0955
lradius 36.1865
lwrist 17.7925
lhand -30.4535 -26.4099
lfingers 7.12502
lthumb -3.75537 3.53679
rfemur -7.13673 13.5541 4.6654
rtibia -1.59028e-014
rfoot -8.23541 -34.6281
rtoes 5.4793
lfemur -23.2263 -5.81865 -17.4392
ltibia 19.1167
lfoot -10.6349 13.5559
ltoes 0.833419
186
root 2.54148 17.6588 0.0538375 17.628 3.6636 0.864291
lowerback -9.54776 -1.15484 5.52044
upperback -6.26984 -1.94584 0.638475
thorax -1.34832 -1.13004 -2.59015
lowerneck -13.4741 2.1299 -3.39213
upperneck 15.7413 3.46006 0.914385
head 6.9586 1.54191 1.19145
rclavicle -1.49834e-014 -5.56597e-015
rhumerus -38.2675 16.0401 -93.0703
rradius 36.3257
rwrist 5.08598
rhand -21.1274 -47.4748
rfingers 7.12502
rthumb 5.25138 -77.3897
lclavicle -1.49834e-014 -5.56597e-015
lhumerus -29.0741 -21.6724 95.3344
lradius 36.5642
lwrist 18.2432
lhand -30.3803 -26.3724
lfingers 7.12502
lthumb -3.68476 3.57546
rfemur -7.26807 13.4827 4.50066
rtibia -1.74931e-014
rfoot -8.3974 -34.6041
rtoes 5.88678
lfemur -23.4324 -5.768 -17.58
ltibia 19.1511
lfoot -10.5712 13.5058
ltoes 0.733011
187
root 2.58264 17.6575 0.0639368 17.649 3.85953 0.830455
lowerback -9.88361 -1.09793 5.88431
upperback -6.15683 -1.92458 0.606088
thorax -1.06199 -1.12028 -2.83793
lowerneck -13.3678 2.24542 -3.41018
upperneck 15.5213 3.6157 0.907488
head 6.86518 1.61883 1.20223
rclavicle 2.76559e-014 -8.34896e-015
rhumerus -38.1012 16.3868 -93.3073
rradius 36.4728
rwrist 4.99957
rhand -20.9285 -47.7373
rfingers 7.12502
rthumb 5.44334 -77.6474
lclavicle 2.76559e-014 -8.34896e-015
lhumerus -28.9229 -22.4683 95.5531
lradius 37.1527
lwrist 18.6781
lhand -30.1189 -25.5099
lfingers 7.12502
lthumb -3.43225 4.44223
rfemur -7.12686 13.2784 4.48144
rtibia -1.59028e-014
rfoot -8.03931 -34.6293
rtoes 5.06125
lfemur -23.5148 -5.68587 -17.7171
ltibia 19.268
lfoot -10.5885 13.2959
ltoes 0.294753
